<svg xmlns="http://www.w3.org/2000/svg" viewBox="0 0 120 120" role="img" aria-label="Goyais">
  <defs>
    <linearGradient id="g" x1="0" y1="0" x2="1" y2="1">
      <stop offset="0" stop-color="#1f6feb"/>
      <stop offset="1" stop-color="#2ea043"/>
    </linearGradient>
  </defs>
  <rect x="8" y="8" width="104" height="104" rx="24" fill="#0b1220"/>
  <path d="M32 60c0-15.5 12.5-28 28-28 10.7 0 20 6 24.7 14.8l-11.3 5.3A15.9 15.9 0 0 0 60 44c-8.8 0-16 7.2-16 16s7.2 16 16 16c6.9 0 12.8-4.4 15-10.5H60V54h29c.2 1.8.3 3.7.3 5.6C89.3 76.5 76.1 90 60 90 44.5 90 32 77.5 32 62z" fill="url(#g)"/>
</svg>
